 <svg  version="1.0" xmlns="http://www.w3.org/2000/svg"  width="300.000000pt" height="300.000000pt" viewBox="0 0 300.000000 300.000000"  preserveAspectRatio="xMidYMid meet">  <g transform="translate(0.000000,300.000000) scale(0.100000,-0.100000)" fill="#e6c16b" stroke="none"> <path d="M1002 2019 c-51 -26 -122 -102 -151 -164 -18 -38 -21 -64 -22 -167 0 -68 -1 -169 -2 -225 -2 -99 -1 -104 25 -129 20 -21 32 -25 53 -20 35 9 109 78 156 147 38 56 54 69 89 69 10 0 47 15 82 33 l64 32 -4 -24 c-6 -29 20 -51 51 -44 12 3 46 24 75 45 30 22 55 38 57 36 2 -2 -3 -24 -12 -48 -20 -57 -30 -207 -14 -223 16 -16 26 0 11 18 -17 21 -8 112 20 209 21 70 28 80 112 166 121 123 166 219 111 237 -22 8 -78 -67 -139 -182 -56 -106 -63 -115 -73 -96 -31 56 -93 43 -156 -32 -39 -47 -132 -102 -192 -113 l-33 -6 34 73 c56 122 76 192 76 269 0 82 -17 123 -60 145 -41 21 -108 19 -158 -6z m161 -20 c71 -55 49 -233 -51 -414 -28 -50 -28 -50 -75 -48 -54 3 -118 32 -141 64 -13 19 -13 26 8 73 13 28 46 88 74 133 57 91 58 93 39 93 -16 0 -77 -81 -123 -165 -20 -36 -38 -65 -41 -65 -3 0 -3 29 -1 64 7 79 54 173 110 217 86 69 155 85 201 48z m547 -72 c0 -13 -13 -43 -29 -68 -35 -53 -128 -156 -135 -149 -6 7 82 161 117 205 32 41 47 44 47 12z m-240 -246 c18 -35 11 -47 -52 -94 -61 -45 -100 -58 -113 -37 -18 29 95 149 142 150 7 0 17 -9 23 -19z m-569 -108 c21 -25 90 -53 132 -53 20 0 37 -3 37 -7 0 -5 -20 -35 -45 -67 -44 -59 -119 -120 -139 -113 -34 11 -47 124 -25 213 12 48 19 53 40 27z"/> <path d="M1733 1813 c-21 -7 -15 -33 7 -33 11 0 20 6 20 14 0 18 -11 25 -27 19z"/> <path d="M1661 1702 c-92 -144 -59 -213 72 -153 23 11 51 29 61 40 26 28 38 26 26 -4 -14 -37 8 -41 66 -12 55 27 101 40 114 32 4 -3 -1 -22 -13 -43 -35 -64 -3 -99 59 -66 41 22 144 126 144 146 0 7 -13 -3 -28 -22 -53 -68 -120 -120 -155 -120 -16 0 -16 3 -2 36 39 94 -5 111 -125 49 -17 -9 -34 -15 -36 -12 -3 2 5 26 16 52 11 26 19 50 16 52 -2 2 -26 -18 -54 -45 -54 -53 -131 -95 -166 -90 -32 5 -24 48 24 128 45 76 46 80 26 80 -8 0 -28 -22 -45 -48z"/> <path d="M1098 1273 c7 -3 12 -26 12 -63 0 -37 -5 -60 -12 -64 -7 -3 12 -4 42 -3 53 2 55 3 58 32 l3 30 -13 -25 c-8 -14 -24 -26 -36 -28 -21 -3 -22 0 -22 57 0 48 3 60 18 64 9 3 -1 5 -23 5 -22 0 -34 -2 -27 -5z"/> <path d="M1328 1268 c7 -7 12 -33 12 -58 0 -51 13 -70 47 -70 28 0 43 27 43 77 0 22 5 44 12 51 9 9 6 12 -16 12 -24 0 -26 -2 -17 -14 18 -22 10 -97 -12 -110 -15 -9 -21 -7 -33 8 -17 24 -19 87 -2 104 9 9 6 12 -17 12 -23 0 -26 -3 -17 -12z"/> <path d="M1591 1249 c16 -17 29 -34 29 -38 0 -4 -14 -22 -31 -39 l-31 -32 25 0 c17 0 25 4 21 13 -2 7 2 21 9 32 14 18 15 18 26 -3 7 -13 10 -26 7 -31 -3 -4 7 -8 23 -9 l28 -1 -29 31 c-35 37 -35 52 -2 83 l27 25 -26 0 c-17 0 -25 -5 -22 -12 3 -7 0 -20 -5 -28 -9 -13 -11 -13 -20 0 -5 8 -8 21 -5 28 3 8 -6 12 -24 12 l-29 0 29 -31z"/> <path d="M1818 1273 c7 -3 12 -24 12 -57 0 -56 12 -76 45 -76 32 0 45 20 45 70 0 25 5 51 12 58 9 9 6 12 -17 12 -23 0 -26 -3 -17 -12 17 -17 15 -93 -3 -108 -8 -7 -22 -10 -30 -6 -19 7 -22 112 -2 119 6 3 -4 5 -23 5 -19 0 -29 -2 -22 -5z"/> <path d="M2068 1268 c15 -15 16 -100 1 -115 -7 -7 -3 -10 16 -10 19 0 23 3 16 10 -6 6 -11 33 -11 59 0 55 20 73 48 44 16 -16 16 -18 -3 -32 -14 -10 -16 -17 -8 -22 6 -4 13 -18 14 -32 5 -31 50 -43 48 -13 0 10 -3 13 -6 6 -7 -20 -23 -15 -23 6 0 11 -5 23 -11 26 -7 5 -4 14 7 26 16 18 16 20 -1 39 -12 14 -31 20 -59 20 -31 0 -37 -3 -28 -12z"/> <path d="M2305 1266 c11 -8 29 -31 39 -51 16 -29 17 -40 9 -54 -10 -16 -8 -18 13 -18 18 0 22 3 15 10 -17 17 -13 36 19 83 27 41 28 44 9 44 -11 0 -17 -4 -14 -10 3 -5 0 -22 -8 -36 l-14 -27 -18 26 c-9 14 -14 31 -10 37 4 6 -6 10 -27 10 -30 0 -31 -1 -13 -14z"/> </g> </svg> 